<mxfile host="app.diagrams.net" modified="2023-12-18T13:51:39.842Z" agent="Mozilla/5.0 (Windows NT 10.0; Win64; x64) AppleWebKit/537.36 (KHTML, like Gecko) Chrome/120.0.0.0 Safari/537.36" etag="1mLm1BdyyEuzlynMXJdt" version="22.1.11" type="github">
  <diagram id="C5RBs43oDa-KdzZeNtuy" name="Page-1">
    <mxGraphModel dx="3585" dy="2000" grid="1" gridSize="10" guides="1" tooltips="1" connect="1" arrows="1" fold="1" page="1" pageScale="1" pageWidth="827" pageHeight="1169" math="0" shadow="0">
      <root>
        <mxCell id="WIyWlLk6GJQsqaUBKTNV-0" />
        <mxCell id="WIyWlLk6GJQsqaUBKTNV-1" parent="WIyWlLk6GJQsqaUBKTNV-0" />
        <mxCell id="OXcOFfk0JJNNnkunyKId-2" style="edgeStyle=orthogonalEdgeStyle;rounded=0;orthogonalLoop=1;jettySize=auto;html=1;entryX=0.5;entryY=0;entryDx=0;entryDy=0;strokeWidth=2;" edge="1" parent="WIyWlLk6GJQsqaUBKTNV-1" source="OXcOFfk0JJNNnkunyKId-0" target="OXcOFfk0JJNNnkunyKId-1">
          <mxGeometry relative="1" as="geometry" />
        </mxCell>
        <mxCell id="OXcOFfk0JJNNnkunyKId-0" value="&lt;font style=&quot;font-size: 24px;&quot;&gt;is_palindrome(num)&lt;/font&gt;" style="ellipse;whiteSpace=wrap;html=1;strokeWidth=2;" vertex="1" parent="WIyWlLk6GJQsqaUBKTNV-1">
          <mxGeometry x="279" y="50" width="270" height="80" as="geometry" />
        </mxCell>
        <mxCell id="OXcOFfk0JJNNnkunyKId-1" value="&lt;font style=&quot;font-size: 24px;&quot;&gt;str(num) == str(num)[::-1]&lt;/font&gt;" style="shape=parallelogram;perimeter=parallelogramPerimeter;whiteSpace=wrap;html=1;fixedSize=1;strokeWidth=2;" vertex="1" parent="WIyWlLk6GJQsqaUBKTNV-1">
          <mxGeometry x="254" y="160" width="320" height="60" as="geometry" />
        </mxCell>
        <mxCell id="OXcOFfk0JJNNnkunyKId-9" style="edgeStyle=orthogonalEdgeStyle;rounded=0;orthogonalLoop=1;jettySize=auto;html=1;strokeWidth=2;" edge="1" parent="WIyWlLk6GJQsqaUBKTNV-1" source="OXcOFfk0JJNNnkunyKId-7" target="OXcOFfk0JJNNnkunyKId-8">
          <mxGeometry relative="1" as="geometry" />
        </mxCell>
        <mxCell id="OXcOFfk0JJNNnkunyKId-7" value="" style="ellipse;whiteSpace=wrap;html=1;strokeWidth=2;" vertex="1" parent="WIyWlLk6GJQsqaUBKTNV-1">
          <mxGeometry x="374" y="280" width="80" height="70" as="geometry" />
        </mxCell>
        <mxCell id="OXcOFfk0JJNNnkunyKId-15" style="edgeStyle=orthogonalEdgeStyle;rounded=0;orthogonalLoop=1;jettySize=auto;html=1;strokeWidth=2;" edge="1" parent="WIyWlLk6GJQsqaUBKTNV-1" source="OXcOFfk0JJNNnkunyKId-8" target="OXcOFfk0JJNNnkunyKId-14">
          <mxGeometry relative="1" as="geometry" />
        </mxCell>
        <mxCell id="OXcOFfk0JJNNnkunyKId-8" value="&lt;font style=&quot;font-size: 24px;&quot;&gt;n&lt;/font&gt;" style="shape=card;whiteSpace=wrap;html=1;strokeWidth=2;" vertex="1" parent="WIyWlLk6GJQsqaUBKTNV-1">
          <mxGeometry x="359" y="390" width="110" height="60" as="geometry" />
        </mxCell>
        <mxCell id="OXcOFfk0JJNNnkunyKId-13" style="edgeStyle=orthogonalEdgeStyle;rounded=0;orthogonalLoop=1;jettySize=auto;html=1;entryX=0.5;entryY=0;entryDx=0;entryDy=0;strokeWidth=2;" edge="1" parent="WIyWlLk6GJQsqaUBKTNV-1" source="OXcOFfk0JJNNnkunyKId-10" target="OXcOFfk0JJNNnkunyKId-12">
          <mxGeometry relative="1" as="geometry" />
        </mxCell>
        <mxCell id="OXcOFfk0JJNNnkunyKId-25" style="edgeStyle=orthogonalEdgeStyle;rounded=0;orthogonalLoop=1;jettySize=auto;html=1;entryX=0.5;entryY=0;entryDx=0;entryDy=0;strokeWidth=2;" edge="1" parent="WIyWlLk6GJQsqaUBKTNV-1" source="OXcOFfk0JJNNnkunyKId-10" target="OXcOFfk0JJNNnkunyKId-23">
          <mxGeometry relative="1" as="geometry">
            <Array as="points">
              <mxPoint x="570" y="595" />
              <mxPoint x="570" y="860" />
              <mxPoint x="414" y="860" />
            </Array>
          </mxGeometry>
        </mxCell>
        <mxCell id="OXcOFfk0JJNNnkunyKId-10" value="&lt;font style=&quot;font-size: 24px;&quot;&gt;i = 0, n&lt;/font&gt;" style="shape=hexagon;perimeter=hexagonPerimeter2;whiteSpace=wrap;html=1;fixedSize=1;strokeWidth=2;" vertex="1" parent="WIyWlLk6GJQsqaUBKTNV-1">
          <mxGeometry x="324" y="570" width="180" height="50" as="geometry" />
        </mxCell>
        <mxCell id="OXcOFfk0JJNNnkunyKId-22" style="edgeStyle=orthogonalEdgeStyle;rounded=0;orthogonalLoop=1;jettySize=auto;html=1;entryX=0;entryY=0.5;entryDx=0;entryDy=0;strokeWidth=2;" edge="1" parent="WIyWlLk6GJQsqaUBKTNV-1" source="OXcOFfk0JJNNnkunyKId-12" target="OXcOFfk0JJNNnkunyKId-10">
          <mxGeometry relative="1" as="geometry">
            <Array as="points">
              <mxPoint x="540" y="675" />
              <mxPoint x="540" y="840" />
              <mxPoint x="280" y="840" />
              <mxPoint x="280" y="595" />
            </Array>
          </mxGeometry>
        </mxCell>
        <mxCell id="OXcOFfk0JJNNnkunyKId-12" value="&lt;font style=&quot;font-size: 24px;&quot;&gt;j = 0, n&lt;/font&gt;" style="shape=hexagon;perimeter=hexagonPerimeter2;whiteSpace=wrap;html=1;fixedSize=1;strokeWidth=2;" vertex="1" parent="WIyWlLk6GJQsqaUBKTNV-1">
          <mxGeometry x="324" y="649.5" width="180" height="50" as="geometry" />
        </mxCell>
        <mxCell id="OXcOFfk0JJNNnkunyKId-16" style="edgeStyle=orthogonalEdgeStyle;rounded=0;orthogonalLoop=1;jettySize=auto;html=1;strokeWidth=2;" edge="1" parent="WIyWlLk6GJQsqaUBKTNV-1" source="OXcOFfk0JJNNnkunyKId-14" target="OXcOFfk0JJNNnkunyKId-10">
          <mxGeometry relative="1" as="geometry" />
        </mxCell>
        <mxCell id="OXcOFfk0JJNNnkunyKId-14" value="&lt;font style=&quot;font-size: 24px;&quot;&gt;matrix = []&lt;/font&gt;" style="rounded=0;whiteSpace=wrap;html=1;strokeWidth=2;" vertex="1" parent="WIyWlLk6GJQsqaUBKTNV-1">
          <mxGeometry x="354" y="480" width="120" height="60" as="geometry" />
        </mxCell>
        <mxCell id="OXcOFfk0JJNNnkunyKId-21" style="edgeStyle=orthogonalEdgeStyle;rounded=0;orthogonalLoop=1;jettySize=auto;html=1;entryX=0;entryY=0.5;entryDx=0;entryDy=0;strokeWidth=2;" edge="1" parent="WIyWlLk6GJQsqaUBKTNV-1" source="OXcOFfk0JJNNnkunyKId-17" target="OXcOFfk0JJNNnkunyKId-12">
          <mxGeometry relative="1" as="geometry">
            <mxPoint x="200" y="670" as="targetPoint" />
            <Array as="points">
              <mxPoint x="414" y="820" />
              <mxPoint x="304" y="820" />
              <mxPoint x="304" y="675" />
            </Array>
          </mxGeometry>
        </mxCell>
        <mxCell id="OXcOFfk0JJNNnkunyKId-17" value="&lt;font style=&quot;font-size: 24px;&quot;&gt;matrix[i][j]&lt;/font&gt;" style="shape=card;whiteSpace=wrap;html=1;strokeWidth=2;" vertex="1" parent="WIyWlLk6GJQsqaUBKTNV-1">
          <mxGeometry x="349" y="730" width="130" height="60" as="geometry" />
        </mxCell>
        <mxCell id="OXcOFfk0JJNNnkunyKId-20" style="edgeStyle=orthogonalEdgeStyle;rounded=0;orthogonalLoop=1;jettySize=auto;html=1;entryX=0.5;entryY=0;entryDx=0;entryDy=0;entryPerimeter=0;strokeWidth=2;" edge="1" parent="WIyWlLk6GJQsqaUBKTNV-1" source="OXcOFfk0JJNNnkunyKId-12" target="OXcOFfk0JJNNnkunyKId-17">
          <mxGeometry relative="1" as="geometry" />
        </mxCell>
        <mxCell id="OXcOFfk0JJNNnkunyKId-29" style="edgeStyle=orthogonalEdgeStyle;rounded=0;orthogonalLoop=1;jettySize=auto;html=1;strokeWidth=2;" edge="1" parent="WIyWlLk6GJQsqaUBKTNV-1" source="OXcOFfk0JJNNnkunyKId-23" target="OXcOFfk0JJNNnkunyKId-27">
          <mxGeometry relative="1" as="geometry" />
        </mxCell>
        <mxCell id="OXcOFfk0JJNNnkunyKId-23" value="&lt;font style=&quot;font-size: 24px;&quot;&gt;polindrom_rows = []&lt;/font&gt;" style="rounded=0;whiteSpace=wrap;html=1;strokeWidth=2;" vertex="1" parent="WIyWlLk6GJQsqaUBKTNV-1">
          <mxGeometry x="293.5" y="890" width="241" height="60" as="geometry" />
        </mxCell>
        <mxCell id="OXcOFfk0JJNNnkunyKId-26" style="edgeStyle=orthogonalEdgeStyle;rounded=0;orthogonalLoop=1;jettySize=auto;html=1;entryX=0.5;entryY=0;entryDx=0;entryDy=0;strokeWidth=2;" edge="1" parent="WIyWlLk6GJQsqaUBKTNV-1" source="OXcOFfk0JJNNnkunyKId-27" target="OXcOFfk0JJNNnkunyKId-28">
          <mxGeometry relative="1" as="geometry" />
        </mxCell>
        <mxCell id="OXcOFfk0JJNNnkunyKId-34" style="edgeStyle=orthogonalEdgeStyle;rounded=0;orthogonalLoop=1;jettySize=auto;html=1;strokeWidth=2;" edge="1" parent="WIyWlLk6GJQsqaUBKTNV-1" source="OXcOFfk0JJNNnkunyKId-27">
          <mxGeometry relative="1" as="geometry">
            <mxPoint x="800" y="1470" as="targetPoint" />
          </mxGeometry>
        </mxCell>
        <mxCell id="OXcOFfk0JJNNnkunyKId-27" value="&lt;font style=&quot;font-size: 24px;&quot;&gt;for row in matrix&lt;/font&gt;" style="shape=hexagon;perimeter=hexagonPerimeter2;whiteSpace=wrap;html=1;fixedSize=1;strokeWidth=2;" vertex="1" parent="WIyWlLk6GJQsqaUBKTNV-1">
          <mxGeometry x="290" y="980" width="250" height="50" as="geometry" />
        </mxCell>
        <mxCell id="OXcOFfk0JJNNnkunyKId-31" style="edgeStyle=orthogonalEdgeStyle;rounded=0;orthogonalLoop=1;jettySize=auto;html=1;strokeWidth=2;" edge="1" parent="WIyWlLk6GJQsqaUBKTNV-1" source="OXcOFfk0JJNNnkunyKId-28" target="OXcOFfk0JJNNnkunyKId-30">
          <mxGeometry relative="1" as="geometry" />
        </mxCell>
        <mxCell id="OXcOFfk0JJNNnkunyKId-33" style="edgeStyle=orthogonalEdgeStyle;rounded=0;orthogonalLoop=1;jettySize=auto;html=1;entryX=0;entryY=0.5;entryDx=0;entryDy=0;strokeWidth=2;" edge="1" parent="WIyWlLk6GJQsqaUBKTNV-1" source="OXcOFfk0JJNNnkunyKId-28" target="OXcOFfk0JJNNnkunyKId-27">
          <mxGeometry relative="1" as="geometry">
            <Array as="points">
              <mxPoint x="590" y="1085" />
              <mxPoint x="590" y="1350" />
              <mxPoint x="190" y="1350" />
              <mxPoint x="190" y="1005" />
            </Array>
          </mxGeometry>
        </mxCell>
        <mxCell id="OXcOFfk0JJNNnkunyKId-28" value="&lt;font style=&quot;font-size: 24px;&quot;&gt;for num in row&lt;/font&gt;" style="shape=hexagon;perimeter=hexagonPerimeter2;whiteSpace=wrap;html=1;fixedSize=1;strokeWidth=2;" vertex="1" parent="WIyWlLk6GJQsqaUBKTNV-1">
          <mxGeometry x="290" y="1059.5" width="250" height="50" as="geometry" />
        </mxCell>
        <mxCell id="OXcOFfk0JJNNnkunyKId-32" style="edgeStyle=orthogonalEdgeStyle;rounded=0;orthogonalLoop=1;jettySize=auto;html=1;entryX=0;entryY=0.5;entryDx=0;entryDy=0;strokeWidth=2;" edge="1" parent="WIyWlLk6GJQsqaUBKTNV-1" source="OXcOFfk0JJNNnkunyKId-30" target="OXcOFfk0JJNNnkunyKId-28">
          <mxGeometry relative="1" as="geometry">
            <Array as="points">
              <mxPoint x="415" y="1300" />
              <mxPoint x="230" y="1300" />
              <mxPoint x="230" y="1085" />
            </Array>
          </mxGeometry>
        </mxCell>
        <mxCell id="OXcOFfk0JJNNnkunyKId-35" style="edgeStyle=orthogonalEdgeStyle;rounded=0;orthogonalLoop=1;jettySize=auto;html=1;entryX=0.75;entryY=0;entryDx=0;entryDy=0;strokeWidth=2;" edge="1" parent="WIyWlLk6GJQsqaUBKTNV-1" source="OXcOFfk0JJNNnkunyKId-30" target="OXcOFfk0JJNNnkunyKId-36">
          <mxGeometry relative="1" as="geometry">
            <mxPoint x="680" y="1250" as="targetPoint" />
            <Array as="points">
              <mxPoint x="693" y="1190" />
            </Array>
          </mxGeometry>
        </mxCell>
        <mxCell id="OXcOFfk0JJNNnkunyKId-30" value="&lt;font style=&quot;font-size: 24px;&quot;&gt;is_polindrome(num)&lt;/font&gt;" style="rhombus;whiteSpace=wrap;html=1;strokeWidth=2;" vertex="1" parent="WIyWlLk6GJQsqaUBKTNV-1">
          <mxGeometry x="270" y="1140" width="290" height="100" as="geometry" />
        </mxCell>
        <mxCell id="OXcOFfk0JJNNnkunyKId-39" style="edgeStyle=orthogonalEdgeStyle;rounded=0;orthogonalLoop=1;jettySize=auto;html=1;strokeWidth=2;" edge="1" parent="WIyWlLk6GJQsqaUBKTNV-1" source="OXcOFfk0JJNNnkunyKId-36">
          <mxGeometry relative="1" as="geometry">
            <mxPoint x="605" y="1470" as="targetPoint" />
          </mxGeometry>
        </mxCell>
        <mxCell id="OXcOFfk0JJNNnkunyKId-36" value="&lt;font style=&quot;font-size: 24px;&quot;&gt;polindrome_rows.append(row)&lt;/font&gt;" style="rounded=0;whiteSpace=wrap;html=1;strokeWidth=2;" vertex="1" parent="WIyWlLk6GJQsqaUBKTNV-1">
          <mxGeometry x="430" y="1370" width="350" height="60" as="geometry" />
        </mxCell>
        <mxCell id="OXcOFfk0JJNNnkunyKId-38" value="" style="endArrow=none;html=1;rounded=0;strokeWidth=2;" edge="1" parent="WIyWlLk6GJQsqaUBKTNV-1">
          <mxGeometry width="50" height="50" relative="1" as="geometry">
            <mxPoint x="400" y="1470" as="sourcePoint" />
            <mxPoint x="800" y="1470" as="targetPoint" />
          </mxGeometry>
        </mxCell>
        <mxCell id="OXcOFfk0JJNNnkunyKId-40" value="" style="endArrow=classic;html=1;rounded=0;entryX=0.529;entryY=-0.031;entryDx=0;entryDy=0;entryPerimeter=0;strokeWidth=2;" edge="1" parent="WIyWlLk6GJQsqaUBKTNV-1" target="OXcOFfk0JJNNnkunyKId-41">
          <mxGeometry width="50" height="50" relative="1" as="geometry">
            <mxPoint x="400" y="1470" as="sourcePoint" />
            <mxPoint x="400" y="1520" as="targetPoint" />
            <Array as="points">
              <mxPoint x="400" y="1520" />
            </Array>
          </mxGeometry>
        </mxCell>
        <mxCell id="OXcOFfk0JJNNnkunyKId-43" style="edgeStyle=orthogonalEdgeStyle;rounded=0;orthogonalLoop=1;jettySize=auto;html=1;strokeWidth=2;" edge="1" parent="WIyWlLk6GJQsqaUBKTNV-1" source="OXcOFfk0JJNNnkunyKId-41" target="OXcOFfk0JJNNnkunyKId-42">
          <mxGeometry relative="1" as="geometry" />
        </mxCell>
        <mxCell id="OXcOFfk0JJNNnkunyKId-41" value="&lt;font style=&quot;font-size: 24px;&quot;&gt;result_matrix=[]&lt;/font&gt;" style="rounded=0;whiteSpace=wrap;html=1;strokeWidth=2;" vertex="1" parent="WIyWlLk6GJQsqaUBKTNV-1">
          <mxGeometry x="293.5" y="1560" width="201" height="50" as="geometry" />
        </mxCell>
        <mxCell id="OXcOFfk0JJNNnkunyKId-45" style="edgeStyle=orthogonalEdgeStyle;rounded=0;orthogonalLoop=1;jettySize=auto;html=1;strokeWidth=2;" edge="1" parent="WIyWlLk6GJQsqaUBKTNV-1" source="OXcOFfk0JJNNnkunyKId-42" target="OXcOFfk0JJNNnkunyKId-44">
          <mxGeometry relative="1" as="geometry" />
        </mxCell>
        <mxCell id="OXcOFfk0JJNNnkunyKId-54" style="edgeStyle=orthogonalEdgeStyle;rounded=0;orthogonalLoop=1;jettySize=auto;html=1;entryX=0.5;entryY=0;entryDx=0;entryDy=0;strokeWidth=2;" edge="1" parent="WIyWlLk6GJQsqaUBKTNV-1" source="OXcOFfk0JJNNnkunyKId-42" target="OXcOFfk0JJNNnkunyKId-55">
          <mxGeometry relative="1" as="geometry">
            <mxPoint x="700" y="1720" as="targetPoint" />
          </mxGeometry>
        </mxCell>
        <mxCell id="OXcOFfk0JJNNnkunyKId-42" value="&lt;font style=&quot;font-size: 24px;&quot;&gt;for row in matrix&lt;/font&gt;" style="shape=hexagon;perimeter=hexagonPerimeter2;whiteSpace=wrap;html=1;fixedSize=1;strokeWidth=2;" vertex="1" parent="WIyWlLk6GJQsqaUBKTNV-1">
          <mxGeometry x="269" y="1640" width="250" height="50" as="geometry" />
        </mxCell>
        <mxCell id="OXcOFfk0JJNNnkunyKId-48" value="" style="edgeStyle=orthogonalEdgeStyle;rounded=0;orthogonalLoop=1;jettySize=auto;html=1;strokeWidth=2;" edge="1" parent="WIyWlLk6GJQsqaUBKTNV-1" source="OXcOFfk0JJNNnkunyKId-44" target="OXcOFfk0JJNNnkunyKId-47">
          <mxGeometry relative="1" as="geometry" />
        </mxCell>
        <mxCell id="OXcOFfk0JJNNnkunyKId-44" value="&lt;font style=&quot;font-size: 24px;&quot;&gt;result_matrix.append(row)&lt;/font&gt;" style="rounded=0;whiteSpace=wrap;html=1;strokeWidth=2;" vertex="1" parent="WIyWlLk6GJQsqaUBKTNV-1">
          <mxGeometry x="224" y="1720" width="340" height="50" as="geometry" />
        </mxCell>
        <mxCell id="OXcOFfk0JJNNnkunyKId-50" style="edgeStyle=orthogonalEdgeStyle;rounded=0;orthogonalLoop=1;jettySize=auto;html=1;entryX=0.5;entryY=0;entryDx=0;entryDy=0;strokeWidth=2;" edge="1" parent="WIyWlLk6GJQsqaUBKTNV-1" source="OXcOFfk0JJNNnkunyKId-47" target="OXcOFfk0JJNNnkunyKId-49">
          <mxGeometry relative="1" as="geometry">
            <Array as="points">
              <mxPoint x="629" y="1850" />
            </Array>
          </mxGeometry>
        </mxCell>
        <mxCell id="OXcOFfk0JJNNnkunyKId-51" style="edgeStyle=orthogonalEdgeStyle;rounded=0;orthogonalLoop=1;jettySize=auto;html=1;entryX=0;entryY=0.5;entryDx=0;entryDy=0;strokeWidth=2;" edge="1" parent="WIyWlLk6GJQsqaUBKTNV-1" source="OXcOFfk0JJNNnkunyKId-47" target="OXcOFfk0JJNNnkunyKId-42">
          <mxGeometry relative="1" as="geometry">
            <Array as="points">
              <mxPoint x="394" y="1960" />
              <mxPoint x="110" y="1960" />
              <mxPoint x="110" y="1665" />
            </Array>
          </mxGeometry>
        </mxCell>
        <mxCell id="OXcOFfk0JJNNnkunyKId-47" value="&lt;font style=&quot;font-size: 24px;&quot;&gt;row in polindrome_rows&lt;/font&gt;" style="rhombus;whiteSpace=wrap;html=1;rounded=0;strokeWidth=2;" vertex="1" parent="WIyWlLk6GJQsqaUBKTNV-1">
          <mxGeometry x="189" y="1800" width="410" height="100" as="geometry" />
        </mxCell>
        <mxCell id="OXcOFfk0JJNNnkunyKId-53" style="edgeStyle=orthogonalEdgeStyle;rounded=0;orthogonalLoop=1;jettySize=auto;html=1;entryX=0;entryY=0.5;entryDx=0;entryDy=0;strokeWidth=2;" edge="1" parent="WIyWlLk6GJQsqaUBKTNV-1" source="OXcOFfk0JJNNnkunyKId-49" target="OXcOFfk0JJNNnkunyKId-42">
          <mxGeometry relative="1" as="geometry">
            <Array as="points">
              <mxPoint x="629" y="2000" />
              <mxPoint x="110" y="2000" />
              <mxPoint x="110" y="1665" />
            </Array>
          </mxGeometry>
        </mxCell>
        <mxCell id="OXcOFfk0JJNNnkunyKId-49" value="&lt;font style=&quot;font-size: 24px;&quot;&gt;result_matrix.append(matrix[0])&lt;/font&gt;" style="rounded=0;whiteSpace=wrap;html=1;strokeWidth=2;" vertex="1" parent="WIyWlLk6GJQsqaUBKTNV-1">
          <mxGeometry x="454" y="1920" width="350" height="50" as="geometry" />
        </mxCell>
        <mxCell id="OXcOFfk0JJNNnkunyKId-56" style="edgeStyle=orthogonalEdgeStyle;rounded=0;orthogonalLoop=1;jettySize=auto;html=1;entryX=0.5;entryY=0;entryDx=0;entryDy=0;exitX=0.494;exitY=0.832;exitDx=0;exitDy=0;exitPerimeter=0;strokeWidth=2;" edge="1" parent="WIyWlLk6GJQsqaUBKTNV-1" source="OXcOFfk0JJNNnkunyKId-55" target="OXcOFfk0JJNNnkunyKId-57">
          <mxGeometry relative="1" as="geometry">
            <mxPoint x="705" y="1810" as="targetPoint" />
          </mxGeometry>
        </mxCell>
        <mxCell id="OXcOFfk0JJNNnkunyKId-55" value="&lt;font style=&quot;font-size: 24px;&quot;&gt;result_matrix&lt;/font&gt;" style="shape=document;whiteSpace=wrap;html=1;boundedLbl=1;strokeWidth=2;" vertex="1" parent="WIyWlLk6GJQsqaUBKTNV-1">
          <mxGeometry x="620" y="1720" width="170" height="56" as="geometry" />
        </mxCell>
        <mxCell id="OXcOFfk0JJNNnkunyKId-57" value="" style="ellipse;whiteSpace=wrap;html=1;aspect=fixed;strokeWidth=2;" vertex="1" parent="WIyWlLk6GJQsqaUBKTNV-1">
          <mxGeometry x="677.5" y="1800" width="55" height="55" as="geometry" />
        </mxCell>
        <mxCell id="OXcOFfk0JJNNnkunyKId-58" value="" style="endArrow=none;html=1;rounded=0;entryX=1;entryY=0;entryDx=0;entryDy=0;exitX=0;exitY=1;exitDx=0;exitDy=0;strokeWidth=2;" edge="1" parent="WIyWlLk6GJQsqaUBKTNV-1" source="OXcOFfk0JJNNnkunyKId-57" target="OXcOFfk0JJNNnkunyKId-57">
          <mxGeometry width="50" height="50" relative="1" as="geometry">
            <mxPoint x="50" y="1870" as="sourcePoint" />
            <mxPoint x="100" y="1820" as="targetPoint" />
          </mxGeometry>
        </mxCell>
        <mxCell id="OXcOFfk0JJNNnkunyKId-59" value="" style="endArrow=none;html=1;rounded=0;entryX=0;entryY=0;entryDx=0;entryDy=0;exitX=1;exitY=1;exitDx=0;exitDy=0;strokeWidth=2;" edge="1" parent="WIyWlLk6GJQsqaUBKTNV-1" source="OXcOFfk0JJNNnkunyKId-57" target="OXcOFfk0JJNNnkunyKId-57">
          <mxGeometry width="50" height="50" relative="1" as="geometry">
            <mxPoint x="150" y="1840" as="sourcePoint" />
            <mxPoint x="200" y="1790" as="targetPoint" />
          </mxGeometry>
        </mxCell>
      </root>
    </mxGraphModel>
  </diagram>
</mxfile>
